<?xml version="1.0" encoding="UTF-8"?>
<svg height="16px" viewBox="0 0 16 16" width="16px" xmlns="http://www.w3.org/2000/svg">
    <g fill="#241f31">
        <path d="m 5 14 c 0 1.105469 -0.894531 2 -2 2 s -2 -0.894531 -2 -2 s 0.894531 -2 2 -2 s 2 0.894531 2 2 z m 0 0"/>
        <path d="m 15 14 c 0 1.105469 -0.894531 2 -2 2 s -2 -0.894531 -2 -2 s 0.894531 -2 2 -2 s 2 0.894531 2 2 z m 0 0"/>
        <path d="m 2 13 h 12 v 2 h -12 z m 0 0"/>
        <path d="m 7 7 h 2 v 9 h -2 z m 0 0"/>
        <path d="m 6 5 l 1 2 h 2 l 1 -2 z m 0 0"/>
        <path d="m 4 0 s -2.90625 0 -2.90625 3 v 5 c 0 3.003906 2.90625 3 2.90625 3 z m 0 0"/>
        <path d="m 5 3 s -1 0 -1 1 v 3 c 0 1 1 1 1 1 h -1 v -5 z m 0 0"/>
        <path d="m 4 0 c 6.996094 0 7 3 7 3 h -7 s -1 -3 0 -3 z m 0 0"/>
        <path d="m 4 11 c 6.996094 0 7 -3 7 -3 h -7 s -1 3 0 3 z m 0 0"/>
    </g>
</svg>
